<svg width="83" height="83" viewBox="0 0 83 83" fill="none" xmlns="http://www.w3.org/2000/svg">
<circle cx="41.5" cy="41.5" r="41.5" fill="#12372A"/>
<path fill-rule="evenodd" clip-rule="evenodd" d="M29.5 31.6667C29.5 28.3515 30.817 25.1721 33.1612 22.8279C35.5054 20.4837 38.6848 19.1667 42 19.1667C45.3152 19.1667 48.4946 20.4837 50.8388 22.8279C53.183 25.1721 54.5 28.3515 54.5 31.6667H56.5833C57.6884 31.6667 58.7482 32.1057 59.5296 32.8871C60.311 33.6685 60.75 34.7283 60.75 35.8334V56.6668C60.75 57.7718 60.311 58.8316 59.5296 59.613C58.7482 60.3944 57.6884 60.8334 56.5833 60.8334H27.4167C26.3116 60.8334 25.2518 60.3944 24.4704 59.613C23.689 58.8316 23.25 57.7718 23.25 56.6668V35.8334C23.25 34.7283 23.689 33.6685 24.4704 32.8871C25.2518 32.1057 26.3116 31.6667 27.4167 31.6667H29.5ZM42 23.3334C44.2101 23.3334 46.3298 24.2114 47.8926 25.7742C49.4554 27.337 50.3333 29.4566 50.3333 31.6667H33.6667C33.6667 29.4566 34.5446 27.337 36.1074 25.7742C37.6702 24.2114 39.7899 23.3334 42 23.3334ZM46.1667 44.1667C46.1666 44.8981 45.9741 45.6166 45.6084 46.25C45.2427 46.8834 44.7167 47.4094 44.0833 47.7751V50.4167C44.0833 50.9693 43.8638 51.4992 43.4731 51.8899C43.0824 52.2806 42.5525 52.5001 42 52.5001C41.4475 52.5001 40.9176 52.2806 40.5269 51.8899C40.1362 51.4992 39.9167 50.9693 39.9167 50.4167V47.7751C39.1224 47.3164 38.5016 46.6085 38.1506 45.7612C37.7997 44.9138 37.7381 43.9743 37.9755 43.0883C38.2129 42.2024 38.736 41.4195 39.4636 40.8612C40.1913 40.3028 41.0828 40.0001 42 40.0001C43.1051 40.0001 44.1649 40.4391 44.9463 41.2205C45.7277 42.0019 46.1667 43.0617 46.1667 44.1667Z" fill="#F1C30C"/>
</svg>
